Coordinates
version=1
nRows=5
nColumns=45
inDegrees=yes

Units are S.I. units (second, meters, Newtons, ...)
Angles are in degrees.

endheader
time	pelvis_tilt	pelvis_list	pelvis_rotation	pelvis_tx	pelvis_ty	pelvis_tz	hip_flexion_r	hip_adduction_r	hip_rotation_r	knee_angle_r	knee_adduction_r	knee_angle_r_beta	ankle_angle_r	subtalar_angle_r	mtp_angle_r	hip_flexion_l	hip_adduction_l	hip_rotation_l	knee_angle_l	knee_adduction_l	knee_angle_l_beta	ankle_angle_l	subtalar_angle_l	mtp_angle_l	lumbar_extension	lumbar_bending	lumbar_rotation	thoracic_extension	thoracic_bending	thoracic_rotation	arm_flex_r	arm_add_r	arm_rot_r	elbow_flex_r	pro_sup_r	wrist_flex_r	wrist_dev_r	arm_flex_l	arm_add_l	arm_rot_l	elbow_flex_l	pro_sup_l	wrist_flex_l	wrist_dev_l
      7.89814286	     -2.11263001	      2.28859159	     -0.85550176	      0.66410718	      0.95258703	      0.46231026	     31.01331927	     -5.74060017	     -3.41885164	     56.14453521	      5.06300000	      0.97990700	      5.61793782	     -8.10627346	      0.76495210	      1.52180586	      4.30592049	     -2.31521231	     17.96491034	      5.06300000	      0.31354684	     15.89330236	     -5.33054495	     -0.48782638	     -4.27115296	      0.16634323	     -3.73231941	      0.00000000	      0.00000000	      0.00000000	     -2.38944281	    -11.67192961	     -1.02626810	     25.68356951	     89.99911678	      0.00000000	      0.00000000	      4.10143101	    -15.58203580	     10.45583943	     40.66989670	     89.99945425	      0.00000000	      0.00000000
      7.90878571	     -1.78367491	      2.07018591	     -0.49576341	      0.66283919	      0.95297258	      0.46234683	     31.03115098	     -5.56039861	     -4.03459893	     52.61163051	      5.06300000	      0.91824618	      5.64702487	     -7.41293864	      0.63968207	     -0.06505452	      4.02679804	     -2.04643868	     17.33809154	      5.06300000	      0.30260678	     15.81224406	     -4.94694052	     -1.49897374	     -4.79737829	      0.40952832	     -4.33067719	      0.00000000	      0.00000000	      0.00000000	     -2.71355029	    -11.43322077	     -1.70724172	     24.18728047	     89.99911678	      0.00000000	      0.00000000	      4.54235114	    -16.21729137	     10.24705404	     42.85669533	     89.99945425	      0.00000000	      0.00000000
      7.91942857	     -2.24829615	      2.44636457	     -0.22741998	      0.66144518	      0.95150283	      0.46266769	     32.13540577	     -5.92055791	     -4.22893906	     49.36228963	      5.06300000	      0.86153448	      5.76120309	     -6.58427961	      0.63805471	     -0.74090427	      4.34619618	     -1.92544031	     16.82658728	      5.06300000	      0.29367935	     15.99566585	     -4.34541729	     -1.80749981	     -4.35001055	     -0.07248899	     -4.62512398	      0.00000000	      0.00000000	      0.00000000	     -3.73658125	    -11.16922911	     -1.76769174	     24.06756881	     89.99911678	      0.00000000	      0.00000000	      5.37598309	    -16.67053301	     10.01088363	     43.76393731	     89.99945425	      0.00000000	      0.00000000
      7.93007143	     -2.11536786	      2.18265494	     -0.05309342	      0.66038459	      0.95108416	      0.46293979	     32.12875047	     -5.58685900	     -4.68341167	     45.34186358	      5.06300000	      0.79136481	      5.58810854	     -5.91103167	      0.34814644	     -2.11334206	      3.99444685	     -1.82221961	     16.24878995	      5.06300000	      0.28359488	     15.99911497	     -3.99673154	     -2.90879550	     -4.61084156	      0.22279625	     -4.93269793	      0.00000000	      0.00000000	      0.00000000	     -4.16732636	    -11.03983845	     -2.30193997	     22.96380204	     89.99911678	      0.00000000	      0.00000000	      5.83030455	    -17.16458170	      9.97841382	     45.63221148	     89.99945425	      0.00000000	      0.00000000
      7.94071429	     -2.54705626	      2.55984797	      0.19718339	      0.65892999	      0.94928609	      0.46337064	     32.93909441	     -5.91136977	     -4.81774600	     41.64256684	      5.06300000	      0.72679990	      5.65103001	     -5.13365351	      0.28608219	     -2.83057652	      4.29659776	     -1.69077445	     15.71581961	      5.06300000	      0.27429280	     16.10228745	     -3.43121392	     -3.34243089	     -4.25041815	     -0.25889161	     -5.13680253	      0.00000000	      0.00000000	      0.00000000	     -5.06895266	    -10.81160975	     -2.42696932	     22.72751605	     89.99911678	      0.00000000	      0.00000000	      6.61778199	    -17.63345845	      9.78246620	     46.61689492	     89.99945425	      0.00000000	      0.00000000
